<svg width="22" height="38" viewBox="0 0 22 38" fill="none" xmlns="http://www.w3.org/2000/svg">
<path d="M0.000862671 9.67781C-0.00469065 9.81452 0.0166128 9.95098 0.0634623 10.0788C0.110312 10.2066 0.181717 10.3231 0.273288 10.421C0.364858 10.5189 0.474659 10.5963 0.595938 10.6483C0.717217 10.7003 0.847409 10.7259 0.978511 10.7235H4.32524C4.88505 10.7235 5.33128 10.2451 5.4043 9.66511C5.7694 6.88792 7.59488 4.86431 10.8483 4.86431C13.6312 4.86431 16.1787 6.3164 16.1787 9.80905C16.1787 12.4973 14.6615 13.7335 12.2641 15.6132C9.53396 17.6834 7.37177 20.1007 7.52592 24.0252L7.53809 24.9439C7.54235 25.2216 7.65108 25.4865 7.84081 25.6813C8.03054 25.8762 8.28607 25.9853 8.55225 25.9853H11.8422C12.1112 25.9853 12.3691 25.8738 12.5593 25.6753C12.7495 25.4768 12.8563 25.2076 12.8563 24.9269V24.4824C12.8563 21.4427 13.9638 20.5579 16.9535 18.1914C19.424 16.2313 22 14.0553 22 9.4873C22 3.09046 16.8237 0 11.1566 0C6.01685 0 0.386243 2.49777 0.000862671 9.67781ZM6.31704 34.0755C6.31704 36.332 8.04111 38 10.4142 38C12.8847 38 14.5845 36.332 14.5845 34.0755C14.5845 31.7386 12.8807 30.096 10.4102 30.096C8.04112 30.096 6.31704 31.7386 6.31704 34.0755Z" fill="#37853A"/>
</svg>
