<svg width="45" height="45" viewBox="0 0 45 45" fill="none" xmlns="http://www.w3.org/2000/svg">
<path d="M41.0519 25.0014C40.8716 24.8206 40.6454 24.6924 40.3976 24.6304C40.1499 24.5685 39.8899 24.5752 39.6457 24.6498C36.9643 25.4604 34.1132 25.5284 31.3962 24.8465C28.6792 24.1645 26.1981 22.7582 24.2173 20.7774C22.2365 18.7966 20.8302 16.3155 20.1483 13.5985C19.4663 10.8815 19.5343 8.03043 20.3449 5.34901C20.4201 5.10468 20.4273 4.84446 20.3657 4.59634C20.3041 4.34822 20.1761 4.12159 19.9953 3.94081C19.8145 3.76004 19.5879 3.63196 19.3398 3.57036C19.0917 3.50876 18.8314 3.51597 18.5871 3.5912C14.8799 4.72683 11.6253 7.00275 9.28651 10.0951C7.24114 12.8107 5.99352 16.0428 5.68381 19.4283C5.37411 22.8139 6.01458 26.2187 7.53329 29.2603C9.05199 32.3019 11.3888 34.8598 14.281 36.6466C17.1733 38.4333 20.5066 39.3782 23.9062 39.375C27.8725 39.3871 31.7331 38.0977 34.8961 35.7047C37.9884 33.3658 40.2644 30.1113 41.4 26.4041C41.4744 26.1607 41.4813 25.9016 41.42 25.6546C41.3587 25.4076 41.2315 25.1818 41.0519 25.0014ZM33.2051 33.4582C30.2265 35.7016 26.5379 36.7936 22.8181 36.5332C19.0983 36.2727 15.5978 34.6773 12.9609 32.0407C10.3241 29.4041 8.72844 25.9037 8.46767 22.1839C8.20691 18.4642 9.2986 14.7754 11.5418 11.7967C13.0032 9.8667 14.8926 8.30222 17.0613 7.22636C16.9378 8.09336 16.8755 8.96798 16.875 9.84374C16.8801 14.6907 18.8078 19.3376 22.2351 22.7649C25.6624 26.1922 30.3093 28.1199 35.1562 28.125C36.0338 28.1247 36.9102 28.0625 37.7789 27.9387C36.702 30.1077 35.1363 31.9971 33.2051 33.4582Z" fill="#37883A"/>
</svg>
