<svg width="55" height="55" viewBox="0 0 55 55" fill="none" xmlns="http://www.w3.org/2000/svg">
<path d="M27.4999 4.58337C24.4905 4.58337 21.5105 5.17613 18.7301 6.3278C15.9497 7.47947 13.4234 9.1675 11.2954 11.2955C6.99768 15.5932 4.58325 21.4222 4.58325 27.5C4.58325 37.6292 11.1603 46.223 20.2583 49.2709C21.4041 49.4542 21.7708 48.7438 21.7708 48.125V44.2521C15.4228 45.6271 14.0708 41.1813 14.0708 41.1813C13.0166 38.523 11.527 37.8125 11.527 37.8125C9.44159 36.3917 11.6874 36.4375 11.6874 36.4375C13.9791 36.598 15.1937 38.798 15.1937 38.798C17.1874 42.2813 20.5562 41.25 21.8624 40.7C22.0687 39.2105 22.6645 38.2021 23.3062 37.6292C18.2187 37.0563 12.8791 35.0855 12.8791 26.3542C12.8791 23.8105 13.7499 21.7709 15.2395 20.1438C15.0103 19.5709 14.2083 17.1875 15.4687 14.0938C15.4687 14.0938 17.3937 13.475 21.7708 16.4313C23.5812 15.9271 25.552 15.675 27.4999 15.675C29.4478 15.675 31.4187 15.9271 33.2291 16.4313C37.6062 13.475 39.5312 14.0938 39.5312 14.0938C40.7916 17.1875 39.9895 19.5709 39.7603 20.1438C41.2499 21.7709 42.1207 23.8105 42.1207 26.3542C42.1207 35.1084 36.7583 37.0334 31.6478 37.6063C32.4728 38.3167 33.2291 39.7146 33.2291 41.8459V48.125C33.2291 48.7438 33.5958 49.4771 34.7645 49.2709C43.8624 46.2 50.4166 37.6292 50.4166 27.5C50.4166 24.4906 49.8238 21.5106 48.6722 18.7302C47.5205 15.9498 45.8325 13.4235 43.7044 11.2955C41.5764 9.1675 39.0501 7.47947 36.2697 6.3278C33.4894 5.17613 30.5094 4.58337 27.4999 4.58337Z" fill="#37883A"/>
</svg>
